<svg width="24" height="24" viewBox="0 0 24 24" fill="none" xmlns="http://www.w3.org/2000/svg">
<path d="M12 0C18.6274 0 24 5.37258 24 12C24 18.6274 18.6274 24 12 24C5.37258 24 0 18.6274 0 12C0 5.37258 5.37258 0 12 0ZM6.75 11.25C6.33579 11.25 6 11.5858 6 12C6 12.4142 6.33579 12.75 6.75 12.75H15.4393L12.2197 15.9697C11.9268 16.2626 11.9268 16.7374 12.2197 17.0303C12.5126 17.3232 12.9874 17.3232 13.2803 17.0303L17.7803 12.5303C18.0732 12.2374 18.0732 11.7626 17.7803 11.4697L13.2803 6.96967C12.9874 6.67678 12.5126 6.67678 12.2197 6.96967C11.9268 7.26256 11.9268 7.73744 12.2197 8.03033L15.4393 11.25H6.75Z" fill="#1C1C1C"/>
</svg>
