<svg width="120" height="37" viewBox="0 0 120 37" fill="none" xmlns="http://www.w3.org/2000/svg">
<g clip-path="url(#clip0_12_17)">
<path d="M112.735 15.0958C110.941 15.0958 109.298 15.7462 108.03 16.8245V15.9916C108.03 15.721 107.811 15.5028 107.54 15.5028H105.86C105.589 15.5028 105.37 15.721 105.37 15.9916V35.6553C105.37 35.9259 105.589 36.1441 105.86 36.1441H107.54C107.811 36.1441 108.03 35.9259 108.03 35.6553V27.8825C109.298 28.9588 110.939 29.6112 112.735 29.6112C116.746 29.6112 120 26.3616 120 22.3546C120 18.3476 116.746 15.0979 112.735 15.0979V15.0958ZM112.735 26.9049C110.218 26.9049 108.179 24.8679 108.179 22.3546C108.179 19.8413 110.218 17.8042 112.735 17.8042C115.251 17.8042 117.293 19.8413 117.293 22.3546C117.293 24.8679 115.253 26.9049 112.735 26.9049Z" fill="#1C1C1C"/>
<path d="M19.9772 7.55176H16.4128C16.0746 7.55176 15.8016 7.82449 15.8016 8.16225V22.7175L6.88943 8.18113C6.64998 7.79092 6.22569 7.55176 5.7657 7.55176H0.611227C0.273057 7.55176 0 7.82449 0 8.16225V28.6399C0 28.9776 0.273057 29.2504 0.611227 29.2504H4.17567C4.51384 29.2504 4.78689 28.9776 4.78689 28.6399V13.7049L13.928 28.5937C14.1779 29.0007 14.6211 29.2483 15.0979 29.2483H19.9772C20.3154 29.2483 20.5885 28.9755 20.5885 28.6378V8.16225C20.5885 7.82449 20.3154 7.55176 19.9772 7.55176Z" fill="#1C1C1C"/>
<path d="M41.0467 24.8363H31.6997C31.4267 24.8363 31.2061 24.6161 31.2061 24.3433V20.9175C31.2061 20.6447 31.4267 20.4244 31.6997 20.4244H39.7402C40.1162 20.4244 40.4229 20.1203 40.4229 19.7426V16.6923C40.4229 16.3168 40.1183 16.0105 39.7402 16.0105H31.6997C31.4267 16.0105 31.2061 15.7902 31.2061 15.5175V12.4587C31.2061 12.186 31.4267 11.9657 31.6997 11.9657H39.944C40.3199 11.9657 40.6266 11.6615 40.6266 11.2839V8.23144C40.6266 7.85592 40.322 7.54962 39.944 7.54962H27.1019C26.7259 7.54962 26.4193 7.85382 26.4193 8.23144V28.5664C26.4193 28.9419 26.7238 29.2482 27.1019 29.2482H41.0488C41.4248 29.2482 41.7314 28.944 41.7314 28.5664V25.5161C41.7314 25.1405 41.4269 24.8342 41.0488 24.8342L41.0467 24.8363Z" fill="#1C1C1C"/>
<path d="M73.8345 7.55176H70.3898C70.0832 7.55176 69.8164 7.76155 69.7429 8.05945L66.4179 21.8322L61.9944 8.0133C61.9062 7.73847 61.6499 7.55176 61.3622 7.55176H57.8796C57.5919 7.55176 57.3377 7.73637 57.2495 8.007L52.7987 21.465L49.6564 8.06365C49.585 7.76365 49.3183 7.55176 49.0095 7.55176H45.2035C44.7624 7.55176 44.4431 7.97553 44.565 8.39931L50.4231 28.7678C50.505 29.0532 50.7655 29.2483 51.0616 29.2483H54.1892C54.4769 29.2483 54.7332 29.0615 54.8214 28.7888L59.5201 14.2336L64.1599 28.7867C64.2481 29.0615 64.5044 29.2483 64.7943 29.2483H68.0709C68.3692 29.2483 68.6297 29.0511 68.7116 28.7657L74.4836 8.39721C74.6033 7.97344 74.284 7.55176 73.8429 7.55176H73.8345Z" fill="#1C1C1C"/>
<path d="M88.9346 17.8189C88.1868 17.37 87.3845 17.0217 86.5254 16.7762C85.6663 16.5308 84.8639 16.2853 84.1162 16.0399C83.3684 15.7944 82.7509 15.4986 82.2594 15.1504C81.7679 14.8042 81.5221 14.3028 81.5221 13.6483C81.5221 13.2392 81.6251 12.893 81.8288 12.6056C82.0325 12.3203 82.2993 12.0895 82.627 11.9154C82.9546 11.7413 83.3012 11.6133 83.6709 11.5315C84.0385 11.4497 84.3976 11.4098 84.7442 11.4098C85.3365 11.4098 85.9667 11.5273 86.6304 11.7623C87.1093 11.9322 87.5189 12.1693 87.8549 12.4714C88.0692 12.6644 88.3969 12.6497 88.5901 12.4378L91.1232 9.67065C91.3291 9.44618 91.2997 9.09163 91.0602 8.90492C90.2515 8.27555 89.3631 7.81401 88.3948 7.5182C87.25 7.17205 86.0633 6.99792 84.8366 6.99792C83.7717 6.99792 82.7404 7.14688 81.7385 7.44268C80.7366 7.73848 79.8523 8.18324 79.0835 8.77485C78.3169 9.36855 77.7035 10.1028 77.2435 10.9818C76.7836 11.8609 76.5525 12.8825 76.5525 14.0469C76.5525 15.2112 76.8025 16.2224 77.3045 16.9588C77.8044 17.6951 78.4345 18.2867 79.1906 18.7357C79.9468 19.1846 80.766 19.5434 81.6461 19.8077C82.5261 20.0741 83.3432 20.3385 84.1015 20.6049C84.8576 20.8714 85.4878 21.1923 85.9877 21.57C86.4897 21.9476 86.7396 22.4637 86.7396 23.1182C86.7396 23.5063 86.643 23.8441 86.4477 24.1294C86.2523 24.4147 85.9982 24.6497 85.681 24.8343C85.3638 25.0189 85.0068 25.1553 84.6077 25.2476C84.2086 25.3399 83.8137 25.386 83.4272 25.386C82.6291 25.386 81.8561 25.2077 81.1104 24.849C80.5349 24.5741 80.035 24.2112 79.6128 23.7581C79.407 23.5399 79.0562 23.5504 78.8525 23.7728L76.2059 26.6762C76.0064 26.8965 76.0274 27.2385 76.2563 27.4294C77.1826 28.2056 78.1719 28.7804 79.2243 29.1539C80.4299 29.5839 81.7406 29.7979 83.1521 29.7979C84.2779 29.7979 85.3449 29.6553 86.3594 29.3679C87.3718 29.0825 88.2624 28.642 89.0291 28.0504C89.7957 27.4588 90.4049 26.7119 90.8544 25.814C91.3039 24.9161 91.5286 23.863 91.5286 22.6567C91.5286 21.3895 91.2829 20.3783 90.7914 19.6231C90.2999 18.8679 89.6823 18.2637 88.9346 17.8147V17.8189Z" fill="#1C1C1C"/>
<path d="M100.26 15.4818H98.3781C98.1071 15.4818 97.8887 15.7 97.8887 15.9706V31.2433C97.8887 32.1224 97.7459 32.7916 97.4623 33.251C97.1788 33.7105 96.7398 33.7189 95.9521 33.7189C95.7169 33.7189 95.4144 33.6748 95.1518 33.6245C94.8515 33.5678 94.5742 33.8007 94.5742 34.1049V35.779C94.5742 36.0098 94.7359 36.2112 94.9628 36.2573C95.322 36.3308 96.0172 36.4 96.4961 36.4C97.5526 36.4 98.3676 36.2049 98.9452 35.8147C99.5207 35.4245 99.9429 34.9608 100.208 34.4238C100.472 33.8867 100.628 33.3308 100.676 32.7538C100.724 32.1769 100.749 31.7133 100.749 31.3629V15.9706C100.749 15.7 100.531 15.4818 100.26 15.4818Z" fill="#1C1C1C"/>
<path d="M99.2162 13.6797C100.325 13.6797 101.224 12.7818 101.224 11.6741C101.224 10.5665 100.325 9.66852 99.2162 9.66852C98.1072 9.66852 97.2082 10.5665 97.2082 11.6741C97.2082 12.7818 98.1072 13.6797 99.2162 13.6797Z" fill="#1C1C1C"/>
</g>
<defs>
<clipPath id="clip0_12_17">
<rect width="120" height="29.4" fill="white" transform="translate(0 7)"/>
</clipPath>
</defs>
</svg>
