<svg width="76" height="40" viewBox="0 0 76 40" fill="none" xmlns="http://www.w3.org/2000/svg">
<g clip-path="url(#clip0_1_7)">
<path d="M74.433 17.8756H62.7837C62.3601 17.8756 62.0166 18.2201 62.0166 18.645V22.0917C62.0166 22.5167 62.3601 22.8611 62.7837 22.8611H74.433C74.8566 22.8611 75.2001 22.5167 75.2001 22.0917V18.645C75.2001 18.2201 74.8566 17.8756 74.433 17.8756Z" fill="#1C1C1C"/>
<path d="M55.766 22.5246L56.3343 14.6853C56.3669 14.2394 56.0151 13.8604 55.5689 13.8604H45.2143C44.7225 13.8604 44.361 14.3162 44.4684 14.7981C44.7111 15.8876 44.8789 17.0049 44.9652 18.1451C44.9961 18.5421 45.3316 18.8475 45.729 18.8475H50.2239C50.6701 18.8475 51.0219 19.2265 50.9893 19.6725L50.7743 22.6373C50.745 23.0392 50.4112 23.3512 50.0089 23.3512H45.4521C45.0775 23.3512 44.7648 23.6256 44.703 23.9964C44.5108 25.1366 44.2388 26.249 43.8919 27.3288C43.7323 27.827 44.0971 28.3367 44.6199 28.3367H58.3114C58.7349 28.3367 59.0785 27.992 59.0785 27.5673V24.1206C59.0785 23.6958 58.7349 23.3512 58.3114 23.3512H56.533C56.0868 23.3512 55.735 22.9722 55.7676 22.5262L55.766 22.5246Z" fill="#1C1C1C"/>
<path d="M20.3459 0C9.10869 0 0 8.95496 0 19.9992C0 31.0434 9.10869 39.9984 20.3459 39.9984C31.5832 39.9984 40.6919 31.0434 40.6919 19.9992C40.6919 8.95496 31.5832 0 20.3459 0ZM30.3145 28.8757C30.3145 29.4573 29.8455 29.9277 29.2657 29.9277H11.4278C10.848 29.9277 10.379 29.4573 10.379 28.8757V24.7086C10.379 24.1271 10.848 23.6566 11.4278 23.6566H29.2657C29.8455 23.6566 30.3145 24.1271 30.3145 24.7086V28.8757ZM30.3145 15.9775C30.3145 16.559 29.8455 17.0294 29.2657 17.0294H11.4278C10.848 17.0294 10.379 16.559 10.379 15.9775V11.8104C10.379 11.2288 10.848 10.7584 11.4278 10.7584H29.2657C29.8455 10.7584 30.3145 11.2288 30.3145 11.8104V15.9775Z" fill="#1C1C1C"/>
</g>
<defs>
<clipPath id="clip0_1_7">
<rect width="75.2" height="40" fill="white"/>
</clipPath>
</defs>
</svg>
