<?xml version="1.0" encoding="UTF-8"?>
<svg id="_レイヤー_1" data-name="レイヤー_1" xmlns="http://www.w3.org/2000/svg" version="1.1" viewBox="0 0 420.6 104.9">
  <!-- Generator: Adobe Illustrator 29.5.1, SVG Export Plug-In . SVG Version: 2.1.0 Build 141)  -->
  <defs>
    <style>
      .st0 {
        fill: #1c1c1c;
        fill-rule: evenodd;
      }
    </style>
  </defs>
  <g id="Page-1">
    <g id="Artboard">
      <g id="Group-19">
        <path id="Fill-1" class="st0" d="M131.4,29.5h11.6c.7,0,1.2.6,1.2,1.2h0v5.9c.8-1.1,1.7-2.1,2.6-3,1-1,2-1.8,3.2-2.6,1.2-.8,2.5-1.4,3.9-1.8,1.6-.5,3.2-.7,4.8-.6,5.4,0,9.6,1.6,12.5,4.9s4.4,7.8,4.4,13.6v31c0,.7-.6,1.2-1.2,1.2,0,0,0,0,0,0h-11.6c-.7,0-1.2-.6-1.2-1.2h0v-26.5c0-3.3-.8-5.8-2.2-7.5-1.6-1.7-3.9-2.7-6.3-2.5-2.4-.1-4.8.8-6.4,2.5-1.6,1.7-2.4,4.2-2.4,7.5v26.5c0,.7-.6,1.2-1.2,1.2,0,0,0,0,0,0h-11.6c-.7,0-1.2-.6-1.2-1.2h0V30.8c0-.7.6-1.2,1.2-1.2h0"/>
        <path id="Fill-3" class="st0" d="M209.4,68.3c1.9,0,3.7-.3,5.4-1.1,1.5-.7,2.9-1.7,4-2.9,1.1-1.2,2-2.7,2.6-4.3.6-1.7.9-3.5.9-5.2v-.2c0-1.8-.3-3.6-.9-5.2-.6-1.6-1.5-3.1-2.7-4.4-1.2-1.3-2.6-2.3-4.2-3-1.7-.8-3.5-1.1-5.3-1.1-1.9,0-3.7.3-5.4,1.1-1.5.7-2.9,1.7-4,2.9-1.1,1.3-2,2.7-2.6,4.3-.6,1.7-.9,3.5-.9,5.2v.2c0,1.8.3,3.6.9,5.2,1.2,3.2,3.7,5.8,6.8,7.3,1.7.8,3.5,1.2,5.3,1.1M209.1,80.4c-3.7,0-7.3-.6-10.7-2-3.1-1.2-6-3.1-8.5-5.4-2.4-2.3-4.3-5.1-5.6-8.2-1.4-3.2-2-6.6-2-10.1v-.2c0-3.5.6-6.9,2-10.1,1.3-3.1,3.2-5.9,5.6-8.3,2.5-2.4,5.4-4.3,8.6-5.6,3.4-1.4,7.1-2.1,10.8-2,3.7,0,7.3.6,10.7,2,3.2,1.3,6,3.1,8.5,5.5,2.4,2.3,4.3,5.1,5.6,8.2,1.4,3.2,2,6.6,2,10.1v.2c0,3.5-.6,6.9-2,10.1-1.3,3.1-3.3,5.9-5.7,8.2-2.5,2.4-5.4,4.3-8.5,5.6-3.4,1.4-7.1,2.1-10.8,2.1"/>
        <path id="Fill-5" class="st0" d="M244.1,29.5h11.6c.7,0,1.2.5,1.2,1.2,0,0,0,0,0,0v8.8c1.3-3.2,3.3-6,5.9-8.2,2.3-1.9,5.4-2.9,9.3-2.8.4,0,.7.3.7.7h0v13.3c0,.4-.3.7-.7.8h0c-4.7,0-8.4,1.4-11.1,4.3-2.7,2.8-4.1,7.3-4,13.3v17.1c0,.7-.5,1.2-1.2,1.2,0,0,0,0,0,0h-11.7c-.7,0-1.2-.5-1.2-1.2,0,0,0,0,0,0V30.8c0-.7.5-1.2,1.2-1.2,0,0,0,0,0,0"/>
        <path id="Fill-7" class="st0" d="M304.2,68.3c1.6,0,3.2-.3,4.7-1,1.5-.6,2.8-1.6,3.8-2.8,1.1-1.3,2-2.8,2.6-4.4.7-1.8,1-3.7,1-5.6v-.2c0-1.9-.3-3.8-1-5.6-.6-1.6-1.5-3.1-2.6-4.4-1.1-1.2-2.4-2.1-3.8-2.8-3-1.3-6.4-1.3-9.4,0-1.5.7-2.8,1.6-3.9,2.8-1.1,1.3-2,2.7-2.6,4.3-.7,1.8-1,3.7-1,5.7v.2c0,1.9.3,3.8,1,5.6.6,1.6,1.5,3.1,2.6,4.4,1.1,1.2,2.4,2.1,3.9,2.8,1.5.7,3.1,1,4.7,1M300.6,80.3c-2.9,0-5.8-.6-8.5-1.7-2.7-1.1-5.2-2.8-7.2-5-2.2-2.3-3.9-5.1-5.1-8.1-1.3-3.5-2-7.2-1.9-11v-.2c0-3.8.6-7.5,1.9-11,1.1-3,2.8-5.7,5-8.1,2-2.2,4.5-3.9,7.2-5,2.7-1.1,5.6-1.7,8.5-1.7,3.3-.1,6.5.6,9.4,2.2,2.3,1.4,4.4,3.1,6.2,5.2v-18c0-.7.6-1.2,1.2-1.2h11.6c.7,0,1.2.6,1.2,1.2v60c0,.7-.5,1.3-1.2,1.3,0,0,0,0,0,0h-11.6c-.7,0-1.2-.6-1.2-1.2v-5.9c-1.7,2.3-3.8,4.3-6.3,5.8-2.8,1.6-6,2.4-9.2,2.3"/>
        <path id="Fill-9" class="st0" d="M363,68.3c1.9,0,3.7-.3,5.4-1.1,1.5-.7,2.9-1.7,4-2.9,1.1-1.2,2-2.7,2.6-4.3.6-1.7.9-3.5.9-5.2v-.2c0-1.8-.3-3.6-.9-5.2-.6-1.6-1.5-3.1-2.7-4.4-1.2-1.3-2.6-2.3-4.2-3-1.7-.8-3.5-1.1-5.3-1.1-1.9,0-3.7.3-5.4,1.1-1.5.7-2.9,1.7-4,2.9-1.1,1.3-2,2.7-2.6,4.3-.6,1.7-.9,3.5-.9,5.2v.2c0,1.8.3,3.6.9,5.2,1.2,3.3,3.7,5.9,6.8,7.4,1.7.7,3.5,1.1,5.3,1.1M362.8,80.4c-3.7,0-7.3-.6-10.7-2-3.2-1.3-6-3.1-8.5-5.5-2.4-2.3-4.3-5.1-5.6-8.2-1.4-3.2-2-6.6-2-10.1v-.2c0-3.5.6-6.9,2-10.1,1.3-3.1,3.3-5.9,5.7-8.2,2.5-2.4,5.4-4.3,8.5-5.6,6.9-2.7,14.6-2.7,21.5,0,3.2,1.3,6,3.1,8.5,5.5,2.4,2.3,4.3,5.1,5.6,8.2,1.4,3.2,2,6.6,2,10.1v.2c0,3.5-.6,6.9-2,10.1-1.3,3.1-3.3,5.9-5.7,8.2-2.5,2.4-5.4,4.3-8.5,5.6-3.4,1.4-7.1,2.1-10.8,2.1"/>
        <g id="Group-13">
          <path id="Fill-11" class="st0" d="M394.8,29.5v-11.5c0-.7.6-1.2,1.2-1.2h11.6c.7,0,1.2.6,1.2,1.2v11.5h10.5c.7,0,1.2.5,1.2,1.2,0,0,0,0,0,0v9.6c0,.7-.6,1.2-1.2,1.2h-10.5v21.4c0,3.2,1.5,4.8,4.5,4.8,1.8,0,3.6-.3,5.3-1,.6-.3,1.4,0,1.6.7,0,.1,0,.3,0,.5v8.6c0,.5-.2.9-.6,1.1-3.2,1.7-6.8,2.6-10.5,2.5-2,0-4-.2-5.9-.7-1.7-.4-3.3-1.3-4.5-2.5-1.3-1.3-2.4-2.9-3-4.6-.8-2.3-1.1-4.8-1.1-7.2V29.5h0Z"/>
        </g>
        <path id="Fill-14" class="st0" d="M74.6,66.8c0,3.3-2.6,5.9-5.9,5.9-3.3,0-5.9-2.6-5.9-5.9,0-3.3,2.6-5.9,5.9-5.9,0,0,0,0,0,0,3.3,0,5.9,2.6,5.9,5.9,0,0,0,0,0,0"/>
        <g id="Group-18">
          <path id="Fill-16" class="st0" d="M52.5,0C23.5,0,0,23.5,0,52.5c0,10,2.9,19.8,8.3,28.3l6.4-6.4,2.2-2.2,18.1-18.1v13c0,3.2,2.6,5.9,5.8,5.9,1.6,0,3.1-.6,4.2-1.7l27.1-27.1c2.2-2.3,2.1-6-.2-8.3-2.3-2.1-5.8-2.1-8,0l-17.1,17.2v-13c0-3.2-2.6-5.9-5.8-5.9-1.6,0-3.1.6-4.2,1.7l-24.2,24.2c-4.2-22.1,10.3-43.5,32.4-47.8,22.1-4.2,43.5,10.3,47.8,32.4,4.2,22.1-10.3,43.5-32.4,47.8-10.5,2-21.4-.2-30.3-6.1l-8.4,8.4c23.4,17.1,56.2,12,73.3-11.3,17.1-23.4,12-56.2-11.3-73.3C74.4,3.5,63.6,0,52.5,0"/>
        </g>
      </g>
    </g>
  </g>
</svg>