<?xml version="1.0" encoding="utf-8"?>
<!-- Generator: Adobe Illustrator 23.1.1, SVG Export Plug-In . SVG Version: 6.00 Build 0)  -->
<svg id="レイヤー_1" data-name="レイヤー 1" xmlns="http://www.w3.org/2000/svg" xmlns:xlink="http://www.w3.org/1999/xlink" viewBox="0 0 420.62 104.9">
  <defs>
    <style>
      .st1{fill:#FFFFFF;}
      .st1,.st2,.st4{fill-rule:evenodd;}
      .st2{fill:#353E4C;}
      .st3{mask:url(#mask);}
      .st4{fill:#00B3B6;}
      .st5{mask:url(#mask-2-2);}
    </style>
    <title>images/logo/nordot_logo_09</title>
    <desc>Created with Sketch.</desc>
    <mask id="mask" x="394.8" y="16.8" width="25.82" height="63.35" maskUnits="userSpaceOnUse">
      <g transform="translate(0 0)">
        <g id="mask-2">
          <polygon id="path-1" class="st1" points="394.8 16.8 420.62 16.8 420.62 80.15 394.8 80.15 394.8 16.8"/>
        </g>
      </g>
    </mask>
    <mask id="mask-2-2" x="0" y="0" width="104.9" height="104.9" maskUnits="userSpaceOnUse">
      <g transform="translate(0 0)">
        <g id="mask-4">
          <polygon id="path-3" class="st1" points="0 0 104.9 0 104.9 104.9 0 104.9 0 0"/>
        </g>
      </g>
    </mask>
  </defs>
  <g id="Page-1">
    <g id="Artboard">
      <g id="Group-19">
        <path id="Fill-1" class="st2" d="M131.4,29.53H143a1.24,1.24,0,0,1,1.24,1.24v5.87a30.19,30.19,0,0,1,2.65-3,18.68,18.68,0,0,1,3.2-2.57,16.12,16.12,0,0,1,3.9-1.78,16.75,16.75,0,0,1,4.83-.65q8.08,0,12.49,4.92t4.42,13.56v31a1.24,1.24,0,0,1-1.25,1.24H162.89a1.24,1.24,0,0,1-1.24-1.24V51.61c0-3.34-.75-5.85-2.23-7.55a8,8,0,0,0-6.32-2.55,8.38,8.38,0,0,0-6.45,2.55c-1.58,1.7-2.37,4.21-2.37,7.55V78.07A1.24,1.24,0,0,1,143,79.31H131.4a1.24,1.24,0,0,1-1.24-1.24V30.77a1.24,1.24,0,0,1,1.24-1.24" transform="translate(0 0)"/>
        <path id="Fill-3" class="st2" d="M209.35,68.26a13.09,13.09,0,0,0,5.43-1.07,12,12,0,0,0,4-2.92A12.86,12.86,0,0,0,221.38,60a15.39,15.39,0,0,0,.88-5.25v-.19a14.76,14.76,0,0,0-.93-5.25,13.33,13.33,0,0,0-2.69-4.36,13.14,13.14,0,0,0-4.18-3,12.55,12.55,0,0,0-5.3-1.11,13.12,13.12,0,0,0-5.43,1.06,12.14,12.14,0,0,0-4,2.93,12.84,12.84,0,0,0-2.55,4.32,15.39,15.39,0,0,0-.89,5.25v.18a14.72,14.72,0,0,0,.93,5.25A13.3,13.3,0,0,0,204,67.14a12.3,12.3,0,0,0,5.34,1.12m-.19,12.17a28.16,28.16,0,0,1-10.68-2A26.18,26.18,0,0,1,190,73a25.74,25.74,0,0,1-5.62-8.17,25,25,0,0,1-2-10.08v-.19a25,25,0,0,1,2-10.08A26.06,26.06,0,0,1,190,36.21a26.85,26.85,0,0,1,8.55-5.57,27.85,27.85,0,0,1,10.77-2,28.15,28.15,0,0,1,10.68,2,26.24,26.24,0,0,1,8.5,5.48,25.62,25.62,0,0,1,5.62,8.18,25,25,0,0,1,2,10.08v.18a25,25,0,0,1-2,10.08,25.51,25.51,0,0,1-5.67,8.22,26.8,26.8,0,0,1-8.54,5.57,27.86,27.86,0,0,1-10.78,2.05" transform="translate(0 0)"/>
        <path id="Fill-5" class="st2" d="M244.13,29.53h11.63A1.23,1.23,0,0,1,257,30.77v8.79a20.79,20.79,0,0,1,5.86-8.18q3.5-2.88,9.31-2.8a.73.73,0,0,1,.72.74v13.3a.75.75,0,0,1-.74.75h0q-7,0-11.1,4.27t-4,13.28V78.07a1.23,1.23,0,0,1-1.24,1.24H244.13a1.23,1.23,0,0,1-1.24-1.24V30.77a1.23,1.23,0,0,1,1.24-1.24" transform="translate(0 0)"/>
        <path id="Fill-7" class="st2" d="M304.24,68.26a11.36,11.36,0,0,0,4.69-1,11.22,11.22,0,0,0,3.81-2.78,13.89,13.89,0,0,0,2.6-4.37,15.6,15.6,0,0,0,1-5.62v-.18a15.6,15.6,0,0,0-1-5.62,14,14,0,0,0-2.6-4.37,11.25,11.25,0,0,0-3.81-2.79,11.82,11.82,0,0,0-9.38,0,11.84,11.84,0,0,0-3.86,2.79,13.62,13.62,0,0,0-2.64,4.32,15.53,15.53,0,0,0-1,5.67v.18a15.6,15.6,0,0,0,1,5.62,13.43,13.43,0,0,0,2.64,4.37,11.81,11.81,0,0,0,3.86,2.78,11.36,11.36,0,0,0,4.69,1m-3.62,12a22.18,22.18,0,0,1-8.45-1.67,20.75,20.75,0,0,1-7.25-5,24.69,24.69,0,0,1-5.06-8.08,29.6,29.6,0,0,1-1.91-11v-.18a29.6,29.6,0,0,1,1.91-11,25.27,25.27,0,0,1,5-8.08,20.47,20.47,0,0,1,7.2-5,22.3,22.3,0,0,1,8.55-1.67A17.68,17.68,0,0,1,310,30.83a24.73,24.73,0,0,1,6.18,5.2V18a1.25,1.25,0,0,1,1.24-1.24H329A1.25,1.25,0,0,1,330.25,18v60A1.24,1.24,0,0,1,329,79.31H317.37a1.24,1.24,0,0,1-1.24-1.24V72.16A22.38,22.38,0,0,1,309.86,78a17.33,17.33,0,0,1-9.24,2.27" transform="translate(0 0)"/>
        <path id="Fill-9" class="st2" d="M363,68.26a13.12,13.12,0,0,0,5.43-1.07,12,12,0,0,0,4-2.92A12.86,12.86,0,0,0,375.06,60a15.39,15.39,0,0,0,.88-5.25v-.19a14.76,14.76,0,0,0-.93-5.25,13.33,13.33,0,0,0-2.69-4.36,13.14,13.14,0,0,0-4.18-3,12.55,12.55,0,0,0-5.3-1.11,13.12,13.12,0,0,0-5.43,1.06,12,12,0,0,0-4,2.93,12.86,12.86,0,0,0-2.56,4.32,15.64,15.64,0,0,0-.88,5.25v.18a14.72,14.72,0,0,0,.93,5.25,13.21,13.21,0,0,0,6.83,7.38A12.3,12.3,0,0,0,363,68.26m-.19,12.17a28.16,28.16,0,0,1-10.68-2,26.18,26.18,0,0,1-8.5-5.48A25.58,25.58,0,0,1,338,64.78a25,25,0,0,1-2-10.08v-.19a25,25,0,0,1,2-10.08,25.73,25.73,0,0,1,5.67-8.22,26.8,26.8,0,0,1,8.54-5.57,29.58,29.58,0,0,1,21.46-.05,26.24,26.24,0,0,1,8.5,5.48,25.62,25.62,0,0,1,5.62,8.18,25,25,0,0,1,2,10.08v.18a25,25,0,0,1-2,10.08,25.51,25.51,0,0,1-5.67,8.22,26.8,26.8,0,0,1-8.54,5.57,27.9,27.9,0,0,1-10.78,2.05" transform="translate(0 0)"/>
        <g id="Group-13">
          <g class="st3">
            <path id="Fill-11" class="st2" d="M394.8,29.53V18a1.25,1.25,0,0,1,1.25-1.24h11.63A1.25,1.25,0,0,1,408.92,18V29.53h10.46a1.23,1.23,0,0,1,1.24,1.24v9.59a1.24,1.24,0,0,1-1.24,1.24H408.92V63q0,4.85,4.55,4.84a13.82,13.82,0,0,0,5.27-1,1.24,1.24,0,0,1,1.7,1.15v8.62a1.24,1.24,0,0,1-.64,1.09,21.18,21.18,0,0,1-10.51,2.52,23,23,0,0,1-5.9-.7A10.45,10.45,0,0,1,398.84,77a11.75,11.75,0,0,1-3-4.6,20.67,20.67,0,0,1-1.07-7.2V29.53Z" transform="translate(0 0)"/>
          </g>
        </g>
        <path id="Fill-14" class="st4" d="M74.61,66.79a5.92,5.92,0,1,1-5.92-5.91,5.91,5.91,0,0,1,5.92,5.91" transform="translate(0 0)"/>
        <g id="Group-18">
          <g class="st5">
            <path id="Fill-16" class="st4" d="M52.45,0A52.46,52.46,0,0,0,8.29,80.76l6.36-6.37,2.18-2.17L34.94,54.11v13a5.85,5.85,0,0,0,10,4.14L72,44.12a5.85,5.85,0,0,0-8.27-8.27L46.64,53V40a5.85,5.85,0,0,0-10-4.14L12.42,60.08A40.81,40.81,0,1,1,29.87,86.35l-8.41,8.42A52.45,52.45,0,1,0,52.45,0" transform="translate(0 0)"/>
          </g>
        </g>
      </g>
    </g>
  </g>
</svg>
