<svg width="400" height="135" viewBox="0 0 400 135" fill="none" xmlns="http://www.w3.org/2000/svg">
<g clip-path="url(#clip0_197_672)">
<path d="M1.12579 87.5936H11.6846C12.311 87.5936 12.8104 88.102 12.8104 88.7194V94.0487C13.5367 93.0864 14.3447 92.1694 15.2163 91.2888C16.0879 90.4081 17.0593 89.6364 18.1216 88.9555C19.1929 88.2745 20.3731 87.7389 21.6624 87.3394C22.9516 86.9399 24.4133 86.7402 26.0475 86.7402C30.941 86.7402 34.7179 88.2291 37.3871 91.207C40.0563 94.1849 41.3909 98.2886 41.3909 103.518V131.654C41.3909 132.28 40.8825 132.78 40.2651 132.78H29.7063C29.0799 132.78 28.5805 132.271 28.5805 131.654V107.631C28.5805 104.598 27.9087 102.32 26.5559 100.776C25.2031 99.2328 23.2966 98.4611 20.818 98.4611C18.3395 98.4611 16.3875 99.2328 14.953 100.776C13.5185 102.32 12.8013 104.608 12.8013 107.631V131.654C12.8013 132.28 12.2929 132.78 11.6755 132.78H1.12579C0.499342 132.78 0 132.271 0 131.654V88.7103C0 88.0839 0.508421 87.5845 1.12579 87.5845V87.5936Z" fill="#BBBBBB"/>
<path d="M71.7233 133.805C68.237 133.805 65.0049 133.197 62.027 131.99C59.0491 130.782 56.4707 129.121 54.3099 127.014C52.1491 124.908 50.4423 122.43 49.2076 119.597C47.9728 116.755 47.3555 113.705 47.3555 110.445V110.273C47.3555 107.013 47.9728 103.963 49.2076 101.121C50.4423 98.2795 52.1582 95.7919 54.3553 93.6584C56.5524 91.5248 59.1309 89.8361 62.1178 88.6014C65.0957 87.3667 68.3551 86.7493 71.8958 86.7493C75.4366 86.7493 78.6143 87.3576 81.5922 88.5651C84.5701 89.7726 87.1394 91.434 89.3093 93.5403C91.47 95.6467 93.1769 98.1252 94.4116 100.958C95.6464 103.8 96.2637 106.85 96.2637 110.109V110.282C96.2637 113.541 95.6464 116.592 94.4116 119.433C93.1769 122.275 91.461 124.763 89.2639 126.896C87.0758 129.03 84.4883 130.719 81.5014 131.953C78.5235 133.188 75.2641 133.805 71.7233 133.805ZM71.8958 122.756C73.748 122.756 75.3912 122.43 76.8257 121.785C78.2602 121.14 79.4858 120.251 80.4936 119.125C81.5014 117.999 82.2822 116.692 82.8087 115.203C83.3444 113.714 83.6077 112.125 83.6077 110.436V110.264C83.6077 108.575 83.3262 106.986 82.7633 105.497C82.2005 104.008 81.3833 102.683 80.3211 101.53C79.2498 100.377 77.9878 99.4598 76.5261 98.788C75.0644 98.1161 73.4574 97.7802 71.7233 97.7802C69.8712 97.7802 68.228 98.107 66.7935 98.7517C65.359 99.3963 64.1334 100.286 63.1256 101.412C62.1178 102.538 61.337 103.845 60.8105 105.334C60.2748 106.823 60.0115 108.412 60.0115 110.1V110.273C60.0115 111.962 60.293 113.55 60.8559 115.039C61.4187 116.528 62.2359 117.854 63.2981 119.007C64.3694 120.16 65.6132 121.077 67.0477 121.749C68.4822 122.42 70.0982 122.756 71.8958 122.756Z" fill="#BBBBBB"/>
<path d="M373.099 133.633C370.457 133.633 367.897 133.125 365.428 132.117C362.949 131.109 360.761 129.602 358.845 127.605C356.93 125.607 355.404 123.165 354.251 120.269C353.098 117.373 352.526 114.041 352.526 110.273V110.1C352.526 106.333 353.098 103.001 354.251 100.104C355.404 97.2082 356.921 94.766 358.809 92.7686C360.688 90.7713 362.867 89.2732 365.346 88.2564C367.815 87.2486 370.403 86.7402 373.108 86.7402C376.54 86.7402 379.364 87.412 381.588 88.7648C383.812 90.1176 385.674 91.6882 387.199 93.4859V77.1619C387.199 76.5355 387.707 76.0361 388.325 76.0361H398.883C399.51 76.0361 400.009 76.5446 400.009 77.1619V131.654C400.009 132.28 399.501 132.78 398.883 132.78H388.325C387.698 132.78 387.199 132.271 387.199 131.654V126.288C385.628 128.422 383.731 130.183 381.506 131.563C379.282 132.943 376.486 133.633 373.117 133.633H373.099ZM376.386 122.756C377.902 122.756 379.318 122.457 380.644 121.867C381.96 121.276 383.113 120.432 384.103 119.334C385.083 118.235 385.873 116.919 386.463 115.366C387.054 113.823 387.353 112.116 387.353 110.264V110.091C387.353 108.239 387.054 106.532 386.463 104.989C385.873 103.445 385.083 102.12 384.103 101.021C383.122 99.9228 381.969 99.0785 380.644 98.4884C379.318 97.8982 377.902 97.5986 376.386 97.5986C374.87 97.5986 373.444 97.8982 372.128 98.4884C370.802 99.0785 369.64 99.9228 368.632 101.021C367.625 102.12 366.817 103.427 366.226 104.943C365.636 106.46 365.337 108.176 365.337 110.091V110.264C365.337 112.116 365.636 113.823 366.226 115.366C366.817 116.91 367.616 118.235 368.632 119.334C369.64 120.432 370.811 121.276 372.128 121.867C373.444 122.457 374.87 122.756 376.386 122.756Z" fill="#BBBBBB"/>
<path d="M213.619 133.805C210.133 133.805 206.9 133.197 203.923 131.99C200.945 130.782 198.366 129.121 196.205 127.014C194.045 124.908 192.338 122.43 191.103 119.597C189.868 116.755 189.251 113.705 189.251 110.445V110.273C189.251 107.013 189.868 103.963 191.103 101.121C192.338 98.2795 194.054 95.7919 196.251 93.6584C198.448 91.5248 201.026 89.8361 204.013 88.6014C206.991 87.3667 210.251 86.7493 213.791 86.7493C217.332 86.7493 220.51 87.3576 223.488 88.5651C226.466 89.7726 229.035 91.434 231.205 93.5403C233.366 95.6467 235.072 98.1252 236.307 100.958C237.542 103.8 238.159 106.85 238.159 110.109V110.282C238.159 113.541 237.542 116.592 236.307 119.433C235.072 122.275 233.356 124.763 231.159 126.896C228.971 129.03 226.384 130.719 223.397 131.953C220.419 133.188 217.16 133.805 213.619 133.805ZM213.791 122.756C215.643 122.756 217.287 122.43 218.721 121.785C220.156 121.14 221.381 120.251 222.389 119.125C223.397 117.999 224.178 116.692 224.704 115.203C225.24 113.714 225.503 112.125 225.503 110.436V110.264C225.503 108.575 225.222 106.986 224.659 105.497C224.096 104.008 223.279 102.683 222.217 101.53C221.145 100.377 219.883 99.4598 218.422 98.788C216.96 98.1161 215.353 97.7802 213.619 97.7802C211.767 97.7802 210.123 98.107 208.689 98.7517C207.255 99.3963 206.029 100.286 205.021 101.412C204.013 102.538 203.233 103.845 202.706 105.334C202.17 106.823 201.907 108.412 201.907 110.1V110.273C201.907 111.962 202.188 113.55 202.751 115.039C203.314 116.528 204.131 117.854 205.194 119.007C206.265 120.16 207.509 121.077 208.943 121.749C210.378 122.42 211.994 122.756 213.791 122.756Z" fill="#BBBBBB"/>
<path d="M104.426 87.5936V77.171C104.426 76.5446 104.935 76.0452 105.552 76.0452H116.111C116.737 76.0452 117.237 76.5536 117.237 77.171V87.5936H126.733C127.36 87.5936 127.859 88.1021 127.859 88.7194V97.4261C127.859 98.0526 127.351 98.5519 126.733 98.5519H117.237V117.935C117.237 120.868 118.617 122.339 121.368 122.339C123.038 122.339 124.636 122.03 126.152 121.404C126.888 121.104 127.687 121.658 127.687 122.457V130.283C127.687 130.691 127.469 131.073 127.106 131.272C125.916 131.908 124.618 132.435 123.211 132.843C121.576 133.324 119.697 133.56 117.564 133.56C115.593 133.56 113.814 133.352 112.207 132.925C110.609 132.507 109.229 131.763 108.076 130.691C106.923 129.62 106.024 128.231 105.38 126.515C104.735 124.799 104.408 122.62 104.408 119.978V87.5936H104.426Z" fill="#BBBBBB"/>
<path d="M162.64 132.171V99.9682C162.64 99.4144 162.195 98.9695 161.641 98.9695H157.701C157.147 98.9695 156.702 98.5247 156.702 97.9709V89.019C156.702 88.4652 157.147 88.0203 157.701 88.0203H161.641C162.195 88.0203 162.64 87.5755 162.64 87.0217V86.3317C162.64 80.8026 164.501 74.3838 168.641 70.6342C172.5 67.1025 177.638 66.013 181.696 66.013C184.375 66.013 186.554 66.3126 188.424 66.7484C188.878 66.8573 189.196 67.275 189.178 67.738L188.923 76.9168C188.905 77.5342 188.333 77.9972 187.734 77.861C186.708 77.6431 185.537 77.4978 184.093 77.4978C179.272 77.4978 177.193 81.1385 177.193 85.6507V87.0126C177.193 87.5664 177.638 88.0113 178.192 88.0113H185.637C186.191 88.0113 186.635 88.4561 186.635 89.0099V97.9618C186.635 98.5156 186.191 98.9605 185.637 98.9605H178.337C177.783 98.9605 177.339 99.4053 177.339 99.9591V132.162C177.339 132.716 176.894 133.161 176.34 133.161H163.629C163.076 133.161 162.631 132.716 162.631 132.162L162.64 132.171Z" fill="#BBBBBB"/>
<path d="M289.991 118.471C289.991 123.664 290.109 127.922 290.263 131.282C290.308 132.307 289.491 133.17 288.465 133.17H279.241C278.315 133.17 277.534 132.462 277.453 131.536L276.962 126.261H276.635C274.983 128.966 270.589 134.278 261.356 134.278C252.122 134.278 244.224 128.739 244.224 114.295V89.8271C244.224 88.8374 245.032 88.0294 246.021 88.0294H257.125C258.114 88.0294 258.922 88.8374 258.922 89.8271V111.698C258.922 118.535 261.356 122.529 266.839 122.529C271.243 122.529 273.812 119.524 274.829 116.973C275.165 116.174 275.283 115.275 275.283 114.286V89.8271C275.283 88.8374 276.091 88.0294 277.08 88.0294H288.184C289.173 88.0294 289.981 88.8374 289.981 89.8271V118.471H289.991Z" fill="#BBBBBB"/>
<path d="M300.331 102.728C300.331 97.762 300.213 93.4949 300.05 89.8997C300.004 88.8738 300.821 88.0294 301.847 88.0294H311.09C312.016 88.0294 312.787 88.7285 312.878 89.6455L313.378 94.6298H313.704C315.357 91.9515 320.178 86.9218 328.657 86.9218C338.1 86.9218 346.198 92.8413 346.198 107.195V131.372C346.198 132.362 345.39 133.17 344.4 133.17H333.297C332.307 133.17 331.499 132.362 331.499 131.372V109.229C331.499 102.746 329.03 98.6518 323.464 98.6518C318.979 98.6518 316.501 101.793 315.484 104.362C315.112 105.234 315.039 106.505 315.039 107.604V131.372C315.039 132.362 314.231 133.17 313.241 133.17H302.138C301.148 133.17 300.34 132.362 300.34 131.372V102.728H300.331Z" fill="#BBBBBB"/>
<path d="M170.33 44.505V32.666C170.33 32.3664 170.085 32.1213 169.786 32.1213H147.533C147.233 32.1213 146.988 31.8762 146.988 31.5766V30.0785C146.988 29.9514 147.034 29.8243 147.115 29.7335L170.775 1.01684C170.875 0.88974 171.038 0.817108 171.202 0.817108H172.981C173.281 0.817108 173.526 1.06224 173.526 1.36184V28.7802C173.526 29.0799 173.771 29.325 174.071 29.325H180.326C180.626 29.325 180.871 29.5701 180.871 29.8697V31.5675C180.871 31.8671 180.626 32.1122 180.326 32.1122H174.071C173.771 32.1122 173.526 32.3573 173.526 32.657V44.4959C173.526 44.7955 173.281 45.0406 172.981 45.0406H170.875C170.575 45.0406 170.33 44.7955 170.33 44.4959V44.505ZM169.776 29.3341C170.076 29.3341 170.321 29.0889 170.321 28.7893V10.3409C170.321 8.70671 170.321 6.93631 170.457 5.37474L170.258 5.31118C169.032 7.21776 168.015 8.50697 167.062 9.66908L151.001 29.207V29.3431H169.786L169.776 29.3341Z" fill="#BBBBBB"/>
<path d="M215.925 22.1163C215.925 37.841 209.932 45.8668 200.136 45.8668C192.646 45.8668 185.71 38.9941 185.438 23.2058C185.438 7.14514 193.264 1.52588e-05 201.226 1.52588e-05C209.869 1.52588e-05 215.925 7.14514 215.925 22.1163ZM188.906 23.2784C188.906 36.1433 193.808 43.1522 200.545 43.1522C208.716 43.1522 212.456 34.9812 212.456 22.5975C212.456 10.2138 208.988 2.7237 200.681 2.7237C194.28 2.7237 188.906 9.5329 188.906 23.2784Z" fill="#BBBBBB"/>
<path d="M242.472 44.505V32.666C242.472 32.3664 242.227 32.1213 241.927 32.1213H219.675C219.375 32.1213 219.13 31.8762 219.13 31.5766V30.0786C219.13 29.9514 219.175 29.8243 219.257 29.7336L242.926 1.02594C243.026 0.898834 243.189 0.826202 243.353 0.826202H245.132C245.432 0.826202 245.677 1.07133 245.677 1.37094V28.7893C245.677 29.0889 245.922 29.3341 246.221 29.3341H252.477C252.776 29.3341 253.022 29.5792 253.022 29.8788V31.5766C253.022 31.8762 252.776 32.1213 252.477 32.1213H246.221C245.922 32.1213 245.677 32.3664 245.677 32.666V44.505C245.677 44.8046 245.432 45.0497 245.132 45.0497H243.026C242.726 45.0497 242.481 44.8046 242.481 44.505H242.472ZM241.918 29.3341C242.218 29.3341 242.463 29.0889 242.463 28.7893V10.3409C242.463 8.70672 242.463 6.93633 242.599 5.37475L242.399 5.3112C241.174 7.21778 240.157 8.50699 239.203 9.66909L223.143 29.207V29.3432H241.927L241.918 29.3341Z" fill="#BBBBBB"/>
</g>
<defs>
<clipPath id="clip0_197_672">
<rect width="400" height="134.278" fill="white"/>
</clipPath>
</defs>
</svg>
